<svg id="Layer_1" xmlns="http://www.w3.org/2000/svg" viewBox="0 0 614.2 184.4"><style>.st0{fill:#8a9faa}.st1{fill:#fff}.st2{fill:#0a59b5}.st3{fill:#3394ff}.st4{fill:#3675c4}.st5{fill:#70b5ff}.st6{fill:#003d73}.st7{fill:#4fa3ff}.st8{fill:#8fcfff}</style><path class="st0" d="M476 140.1h-5.3c-1.4 0-2.5-1.1-2.5-2.5V62c0-1.4 1.1-2.5 2.5-2.5h5.3c1.4 0 2.5 1.1 2.5 2.5v75.6c0 1.3-1.1 2.5-2.5 2.5"/><path class="st1" d="M224.2 127.5c-6 0-11.8-.9-15.7-2.1-1-.3-1.6-.9-1.6-1.9v-8.9c0-1.3.5-2.1 2.1-1.8 5.2.7 11.8 1.4 14.6 1.4 3.4 0 4-.9 4-2.4 0-1-.5-1.8-2.5-2.9l-10.3-5.7c-5.3-2.9-8.1-7.3-8.1-13.6 0-8.8 6-13.8 18.6-13.8 6.4 0 11.5 1 15.6 2.2 1 .3 1.7.9 1.7 1.9V89c0 1.1-.3 1.9-1.7 1.7-2.5-.3-10.8-1.3-14.6-1.3-2.2 0-3.1.5-3.1 1.7 0 1 .6 1.5 1.9 2.2l9.9 5.4c7 3.8 8.9 8.6 8.9 13.5 0 8.5-6 15.3-19.7 15.3m51.5-30.7c0-5.2-2-8.3-6.3-8.3-4.1 0-6.3 3.1-6.3 8.3v.3h12.5v-.3zm13.8 9.4h-26.4v.2c0 4.6 1.9 7.4 8.1 7.4 4.5 0 12.8-.4 16.1-.7 1.4-.1 1.9.2 1.9 1.5v7.8c0 1.4-.3 2-1.7 2.4-5.4 1.8-11.3 2.7-18.4 2.7-11.4 0-22-6.1-22-22.6v-5.7c0-15.2 8.6-23.5 22.5-23.5 14.8 0 21.7 9.6 21.7 23.5v5.2c0 1.1-.8 1.8-1.8 1.8m37 19.9c-2.9.7-6.6 1.4-11.6 1.4-13 0-20.3-8.5-20.3-22.6v-6.5c0-14.1 7.3-22.7 20.3-22.7 5 0 9.2.8 11.6 1.4 1.1.3 1.7.7 1.7 1.8v9.8c0 1-.5 1.8-1.8 1.6-2.9-.3-5.6-.6-9.7-.6-3.6 0-5.8 2.3-5.8 8.7v6.5c0 6.4 2.1 8.6 5.8 8.6 4.2 0 6.9-.2 9.7-.5 1.3-.2 1.8.5 1.8 1.6v9.7c0 1.1-.6 1.5-1.7 1.8m28.4 1.4h-.5c-13.4 0-21.9-7.9-21.9-21.1v-28c0-.9.8-1.9 1.8-1.9H347c1 0 1.8.9 1.8 1.9v28c0 4.1 1.6 7.3 5.6 7.3h.5c4 0 5.6-3.2 5.6-7.3v-28c0-.9.8-1.9 1.8-1.9H375c1 0 1.8.9 1.8 1.9v28c0 13.2-8.5 21.1-21.9 21.1M408 89.4c-2.1 0-7.2.1-8.7.3v35c0 1-.8 1.9-1.7 1.9h-12.7c-.9 0-1.9-.9-1.9-1.9V81c0-1.4.7-2.1 3.1-2.8 5.4-1.8 13.1-2.5 22-2.5 1 0 2 .6 2 1.7v10.3c-.1.9-.8 1.7-2.1 1.7m32.5 7.4c0-5.2-2-8.3-6.3-8.3-4.1 0-6.3 3.1-6.3 8.3v.3h12.5v-.3zm13.8 9.4h-26.4v.2c0 4.6 1.9 7.4 8.1 7.4 4.5 0 12.8-.4 16.1-.7 1.4-.1 1.9.2 1.9 1.5v7.8c0 1.4-.3 2-1.7 2.4-5.4 1.8-11.3 2.7-18.4 2.7-11.4 0-22-6.1-22-22.6v-5.7c0-15.2 8.6-23.5 22.5-23.5 14.8 0 21.7 9.6 21.7 23.5v5.2c0 1.1-.8 1.8-1.8 1.8m51.8 21.3c-6 0-11.8-.9-15.7-2.1-1-.3-1.6-.9-1.6-1.9v-8.9c0-1.3.5-2.1 2.1-1.8 5.2.7 11.8 1.4 14.6 1.4 3.4 0 4-.9 4-2.4 0-1-.5-1.8-2.5-2.9l-10.3-5.7c-5.3-2.9-8.1-7.3-8.1-13.6 0-8.8 6-13.8 18.6-13.8 6.4 0 11.5 1 15.6 2.2 1 .3 1.7.9 1.7 1.9V89c0 1.1-.3 1.9-1.7 1.7-2.5-.3-10.8-1.3-14.6-1.3-2.2 0-3.1.5-3.1 1.7 0 1 .6 1.5 1.9 2.2l9.9 5.4c7 3.8 8.9 8.6 8.9 13.5-.1 8.5-6 15.3-19.7 15.3m51.5-30.7c0-5.2-2-8.3-6.3-8.3-4.1 0-6.3 3.1-6.3 8.3v.3h12.5v-.3zm13.8 9.4H545v.2c0 4.6 1.9 7.4 8.1 7.4 4.5 0 12.8-.4 16.1-.7 1.4-.1 1.9.2 1.9 1.5v7.8c0 1.4-.3 2-1.7 2.4-5.4 1.8-11.3 2.7-18.4 2.7-11.4 0-22-6.1-22-22.6v-5.7c0-15.2 8.6-23.5 22.5-23.5 14.8 0 21.7 9.6 21.7 23.5v5.2c-.1 1.1-.8 1.8-1.8 1.8m34-17.4h-11.2v23.4c0 2.6.3 3 3.6 3h7.3c1 0 1.8.7 1.8 1.6v7.9c0 .9-.8 1.6-1.8 1.8-3 .5-6.7.9-10.4.9-10.6 0-16.9-3.1-16.9-15.5v-43c0-.9.8-1.6 1.8-1.8l12.8-2.2h.3c.8 0 1.5.9 1.5 1.8v9.8h11.2c.9 0 1.7.9 1.7 1.8V87c0 .9-.8 1.8-1.7 1.8"/><path class="st2" d="M119 55.8l63.4 24.3-39.9-1.4-19.3-14.6z"/><path class="st3" d="M91.2 30.5l7-24.1 10.3 24.7-5.7 38.4-.1-.2-11.5-38.8z"/><path class="st4" d="M137.2 113.6l8.7 64.3L103 70l-.1-.5 3.3 3.5 29.6 38.1zM32.1 131.2l8.5 10.3L77 128l-2-.2z"/><path class="st5" d="M43.7 121.9l14.3-5.4-34-24.9v.1l19.6 30.1zm59.2-52.3L85.8 49.2l5.4-18.7zM24 91.6l59 5.3.2-.1v-.1l-4.5-30.9-20-2.9L51 76.8z"/><path class="st6" d="M61.5 68l-6.3 11.9 21.7-3.7z"/><path class="st3" d="M78.7 65.8l23.8 3.6.4.1-.2.4-18.1 25.7-1.4 1.3-4.5-31"/><path class="st4" d="M83.2 96.9l19.7-27.4-1.6 53.6-.8 2.8-16.9-27.7z"/><path class="st3" d="M76.9 128l6.2-31.2 17.3 28.9.1.2z"/><path class="st5" d="M7.1 100.8L24 91.6l-3.6 11.2z"/><path class="st6" d="M7.1 100.8l9.8 12.1 3.4-10.2z"/><path class="st7" d="M73.4 95.9l9.8 1L77 128l-45 3.3 38.7-14.4-2.2-4.3-10.5 3.9z"/><path class="st3" d="M102.9 69.5l-2.4 56.4 45.4 52z"/><path class="st2" d="M102.9 69.5L119 55.8l16.6 51.2 1.6 6.6z"/><path class="st4" d="M123.4 64.1l52.6 40.2-37.3-10.6z"/><path class="st8" d="M58.7 62.9l27.2-13.8 17 20.4zM24 91.6L73.6 96 58 116.5z"/><path class="st3" d="M43.7 121.9l-20.3-1.1-6.5-7.9L24 91.6z"/><path class="st7" d="M165.6 143L119 55.8l16.9 53.8 1.3 4z"/><path class="st4" d="M102.9 69.5l5.6-38.5L119 55.8z"/></svg>