<svg width="46" height="76" viewBox="0 0 46 76" xmlns="http://www.w3.org/2000/svg" xmlns:xlink="http://www.w3.org/1999/xlink"><title>map_pin</title><desc>Created by VoltageAD</desc><defs><path id="a" d="M46 0H0v76h46z"/></defs><g fill="none" fill-rule="evenodd"><mask id="b" fill="#fff"><use xlink:href="#a"/></mask><path d="M23 32.513c-5.601 0-10.142-4.538-10.142-10.136 0-5.598 4.54-10.136 10.142-10.136 5.602 0 10.143 4.538 10.143 10.136 0 5.598-4.541 10.136-10.143 10.136M23 0C10.318 0 0 10.439 0 23.27c0 3.172 1.894 9.298 7.229 16.124C15.205 49.596 20.94 64.6 23 76c2.06-11.4 7.795-26.404 15.772-36.606C44.108 32.568 46 26.442 46 23.27 46 10.439 35.683 0 23 0" fill="#0270CD" mask="url(#b)"/></g></svg>